<?xml version="1.0" encoding="utf-8"?>
<!-- Generator: Adobe Illustrator 19.2.1, SVG Export Plug-In . SVG Version: 6.00 Build 0)  -->
<svg version="1.1" id="Слой_1" xmlns="http://www.w3.org/2000/svg" xmlns:xlink="http://www.w3.org/1999/xlink" x="0px" y="0px"
	 viewBox="0 0 290 256.5" style="enable-background:new 0 0 290 256.5;" xml:space="preserve">
<style type="text/css">
	.st0{fill:#FFFFFF;}
</style>
<g>
	<g>
		<path class="st0" d="M194.4,142.2c10.8,0,21.3-5.8,25-8c3.6,2.2,14.2,8,25,8c12.8,0,25.7-8.5,26.3-8.9c1.1-0.7,1.4-2.2,0.6-3.2
			c-0.7-1.1-2.2-1.4-3.2-0.6c-0.1,0.1-12.3,8.1-23.7,8.1c-11.6,0-23.5-8-23.7-8.1l-1.3-0.9l-1.3,0.9c-0.1,0.1-12.1,8.1-23.7,8.1
			c-6.4,0-12.8-2.4-17.4-4.6h13.3c2.2,0,4-1.8,4-4v-4.8c0,0,0.1,0,0.1,0c10.8,0,21.3-5.8,25-8c3.6,2.2,14.2,8,25,8
			c12.8,0,25.7-8.5,26.3-8.9c1.1-0.7,1.4-2.2,0.6-3.2c-0.7-1.1-2.2-1.4-3.2-0.6c-0.1,0.1-12.3,8.1-23.7,8.1c-11.6,0-23.5-8-23.7-8.1
			l-1.3-0.9l-1.3,0.9c-0.1,0.1-12.1,8.1-23.7,8.1c0,0-0.1,0-0.1,0V115c0-2.2-1.8-4-4-4h-20.1l-0.7-0.5l-0.7,0.5h-6.3
			c6.7-5.4,10.8-13.6,10.8-22.4c0-15.8-12.8-28.6-28.6-28.6s-28.6,12.8-28.6,28.6c0,8.8,4.1,17,10.8,22.4h-6.6l-0.7-0.5l-0.7,0.5
			H98.9c-2.2,0-4,1.8-4,4v4.5c-0.1,0-0.3,0-0.4,0c-11.6,0-23.5-8-23.7-8.1l-1.3-0.9l-1.3,0.9c-0.1,0.1-12.1,8.1-23.7,8.1
			c-10,0-20.6-6.2-23.6-8.1c-1.1-0.7-2-0.5-2.5-0.1l1.2,2.1l-1.2,2l0.1,0.1c3.3,2.1,14.8,8.8,26.1,8.8c10.8,0,21.3-5.8,25-8
			c3.6,2.2,14.2,8,25,8c0.1,0,0.3,0,0.4,0v4.8c0,2.2,1.8,4,4,4h13c-4.6,2.2-11,4.6-17.4,4.6c-11.6,0-23.5-8-23.7-8.1l-1.3-0.9
			l-1.3,0.9c-0.1,0.1-12.1,8.1-23.7,8.1c-10.1,0-20.6-6.2-23.6-8.1c-1.1-0.7-2-0.5-2.5-0.1l1.2,2.1l-1.2,2l0.1,0.1
			c3.3,2.1,14.8,8.8,26.1,8.8c10.8,0,21.3-5.8,25-8c3.6,2.2,14.2,8,25,8s21.3-5.8,25-8c2.4,1.5,7.9,4.5,14.4,6.4
			c-0.1,4.4-0.3,8.8-0.5,13c-7.1-2.4-12.5-6-12.6-6.1l-1.3-0.9l-1.3,0.9c-0.1,0.1-12,8.1-23.6,8.1c-9,0-18.3-4.9-22-7
			c-0.6-1.2-1.2-2.4-1.8-3.5c-0.4-0.9-1.4-1.4-2.4-1.3c-1,0.1-1.8,0.8-2,1.8c-0.1,0.3-0.3,1.5-0.6,3.5c-4.1,2.3-12.7,6.6-21.2,6.6
			c-10,0-20.6-6.2-23.6-8c-1.1-0.7-2-0.5-2.5-0.1l1.2,2.1l-1.2,2l0.1,0.1c3.3,2.1,14.8,8.8,26.1,8.8c7.8,0,15.4-3,20.4-5.6
			c-0.4,4.2-0.7,9.6-0.4,15.6c-4.8,2.5-12.4,5.6-20.1,5.6c-12.3,0-25-8.5-25-8.5c0,0.2,0,0.8,0,0.8c0.7,33.1,39.4,60.9,92,69.3
			c3.6,1.3,7.1,2.2,10.2,3c9.2,2.3,15.8,4,20.8,13.8c0.4,0.8,1.2,1.3,2.1,1.3c0,0,0,0,0,0c0.9,0,1.7-0.5,2.1-1.3
			c4.8-9.7,10.8-11.3,19.9-13.8c2.8-0.7,5.8-1.5,9-2.7c53.4-8,92.9-36.1,93.6-69.5c0,0,0-0.6,0-0.8c0,0-12.7,8.5-25,8.5
			c-7.8,0-15.5-3.3-20.3-5.8c0.5-5.9,0.4-11.2,0.1-15.4c5,2.5,12.5,5.4,20.1,5.4c12.8,0,25.7-8.5,26.3-8.9c1.1-0.7,1.4-2.2,0.6-3.2
			c-0.7-1.1-2.2-1.4-3.2-0.6c-0.1,0.1-12.3,8.1-23.7,8.1c-8.1,0-16.3-3.9-20.6-6.3c-0.2-2.2-0.5-3.5-0.5-3.8c-0.2-1-1-1.8-2-1.9
			c-1-0.1-2,0.4-2.4,1.3c-0.5,1-1,2-1.6,3.1c-2.9,1.8-13,7.5-22.8,7.5c-11.6,0-23.5-8-23.7-8.1l-1.3-0.9l-1.3,0.9
			c-0.1,0.1-5.2,3.5-12,5.9c-0.2-4.2-0.4-8.6-0.5-13c6.3-1.9,11.4-4.8,13.8-6.2C173,136.4,183.6,142.2,194.4,142.2z M127,133h6.9
			c0,0.9,0,1.8,0,2.8C131.4,134.9,129,133.9,127,133z M94.5,160.3c10.8,0,21.3-5.8,25-8c2.3,1.4,7.4,4.3,13.6,6.2
			c-0.3,5.3-0.7,10.4-1.2,15.2c-7.2-2.5-12.5-6.1-12.5-6.1s-12.5,8.5-25,8.5c-0.5,0-0.9,0-1.4,0c-4.7-2-11.2-11.1-16.5-20
			C81.5,158.1,88,160.3,94.5,160.3z M169.4,152.2c3.6,2.2,14.2,8,25,8c6.9,0,13.7-2.4,18.6-4.7c-5.5,9.3-12.4,18.9-17.2,20.3
			c-0.5,0-1,0-1.4,0c-12.5,0-25-8.5-25-8.5s-5,3.4-11.9,5.9c-0.4-4.8-0.8-9.9-1.1-15.2C162.3,156.3,167.2,153.6,169.4,152.2z
			 M151.5,154.7c0.1,1.6,0.2,3.2,0.3,4.7c0.3,5.4,0.7,10.5,1.2,15.4c2.3,25,5.6,42.4,5.7,42.6c0.1,0.6,0.5,1.2,1.1,1.5
			c0.5,0.3,1.2,0.4,1.8,0.3c1.6-0.4,40.3-10.9,47.4-36c0.2-0.7,0.1-1.4-0.3-2c-0.4-0.6-1-0.9-1.7-1c-2.2-0.2-4.8-0.8-6.5-1.5
			c1.8-1.2,3.6-2.9,5.3-4.8c5.3-5.8,10.3-14.2,13.6-20.1c0.2,3.6,0.4,8.3,0.1,13.7c-0.9,15-5.1,35-19.9,49.5
			c-13.7,13.5-25,16.5-34.1,18.9c-4.1,1.1-7.9,2.1-11.4,3.9c-3.5,1.8-6.7,4.4-9.4,8.7c-2.9-4.2-6.2-6.8-9.9-8.7
			c-3.6-1.8-7.6-2.8-11.8-3.9c-9.9-2.5-21.1-5.4-34.8-18.9c-14.7-14.5-18.5-34.4-18.8-49.4c-0.1-5.6,0.2-10.4,0.6-14.1
			c3.3,6,8.4,14.7,13.9,20.7c1.8,2,3.6,3.6,5.4,4.8c-1.7,0.8-4.3,1.5-6.6,1.7c-0.7,0.1-1.3,0.4-1.7,1c-0.4,0.6-0.5,1.3-0.3,2
			c7.1,25.1,45.8,35.2,47.4,35.6c0.6,0.2,1.3,0.1,1.8-0.3c0.5-0.3,0.9-0.9,1-1.5c0.1-0.3,3.4-17.6,5.7-42.5c0.4-4.9,0.9-10,1.2-15.4
			c0.1-1.5,0.2-3.1,0.3-4.7c0.2-4.3,0.4-8.7,0.5-13.2c0-1.6,0.1-3.1,0.1-4.7c0-2.1,0-4.2,0-6.3c0-0.6-0.2-1.2-0.7-1.7
			c-0.4-0.4-1-0.7-1.7-0.7H99.6v-4.5V119v-3.3h10.6h18.5h6.5c0.6,0,1.3-0.3,1.7-0.7c0.4-0.5,0.7-1.1,0.6-1.7l0-0.1
			c-0.1-0.9-0.6-1.7-1.5-2c-9.2-3.5-15.5-12.5-15.5-22.4c0-13.2,10.8-24,24-24s24,10.8,24,24c0,9.9-6.2,18.9-15.5,22.4
			c-0.9,0.3-1.5,1.1-1.5,2.1l0,0.1c0,0.6,0.2,1.3,0.6,1.7c0.4,0.5,1,0.7,1.7,0.7h6.2h18.5h10.9v3.4v4.7v4.5h-36.4
			c-0.6,0-1.2,0.2-1.7,0.7c-0.4,0.4-0.7,1-0.7,1.7c0,2.1,0,4.1,0,6.2c0,1.6,0.1,3.2,0.1,4.7C151.1,146.1,151.3,150.5,151.5,154.7z
			 M155.5,135.5c0-0.9,0-1.7,0-2.6h6.3C160,133.9,157.8,134.8,155.5,135.5z"/>
		<path class="st0" d="M160.2,88.7c0-8.6-7-15.6-15.6-15.6c-8.6,0-15.6,7-15.6,15.6c0,8.6,7,15.6,15.6,15.6
			C153.2,104.3,160.2,97.3,160.2,88.7z M144.6,99.6c-6,0-10.9-4.9-10.9-10.9c0-6,4.9-10.9,10.9-10.9s10.9,4.9,10.9,10.9
			C155.5,94.7,150.6,99.6,144.6,99.6z"/>
	</g>
	<g>
		<g>
			<path class="st0" d="M2.2,32V1.1C4,1.1,11.9,1,12.8,1c8.4,0,11.4,4.2,11.4,9.9c0,5.7-3.5,8.1-5.2,8.9L28,32h-8.6l-7.5-10.8H9.3
				V32H2.2z M9.3,7.7v6.9h2.6c2.7,0,4.8-1,4.8-3.6c0-1.7-0.9-3.4-4.3-3.4C11.3,7.6,10.8,7.6,9.3,7.7z"/>
		</g>
		<g>
			<path class="st0" d="M38.1,1.1h7.1V32h-7.1V1.1z"/>
		</g>
		<g>
			<path class="st0" d="M72.8,32h-5.4L55,1.1h7.6l7.8,20.4l7.4-20.4h7.1L72.8,32z"/>
		</g>
		<g>
			<path class="st0" d="M94.5,1.1h18.3v6.6h-11.3v5.4h9.9v6.6h-9.9v5.6h11.7V32H94.5V1.1z"/>
		</g>
		<g>
			<path class="st0" d="M125.9,32V1.1c1.7,0,9.6-0.1,10.5-0.1c8.4,0,11.4,4.2,11.4,9.9c0,5.7-3.5,8.1-5.2,8.9l9,12.2h-8.6l-7.5-10.8
				h-2.6V32H125.9z M132.9,7.7v6.9h2.6c2.7,0,4.8-1,4.8-3.6c0-1.7-0.9-3.4-4.3-3.4C135,7.6,134.4,7.6,132.9,7.7z"/>
		</g>
		<g>
			<path class="st0" d="M177.7,1.1h7.1v24.3h12.6V32h-19.7V1.1z"/>
		</g>
		<g>
			<path class="st0" d="M207.6,1.1h7.1V32h-7.1V1.1z"/>
		</g>
		<g>
			<path class="st0" d="M249.7,32l-14.7-18.6V32h-6.6V1.1h5.7l14.7,18.7V1.1h6.6V32H249.7z"/>
		</g>
		<g>
			<path class="st0" d="M269,1.1h18.3v6.6h-11.3v5.4h9.9v6.6h-9.9v5.6h11.7V32H269V1.1z"/>
		</g>
	</g>
</g>
</svg>
